# xmcd
# Copyright (C) 1995-1998 Ti Kan
#
# Track frame offsets:
#       150
#       62491
#       125106
#       211826
#
# Disc length: 3677 seconds
#
# Revision: 0
# Processed by: cddbd v1.5.2PL0 Copyright (c) Steve Scherf et al.
# Submitted via: CD-Transfer v1.0
#
DISCID=350e5b04
DTITLE=Friday Night Life Mixed By Dj U.r.s. - 
DYEAR=1900
DGENRE=
TTITLE0=Happy Luky Dance
TTITLE1=Head Of South
TTITLE2=Celebreighties
TTITLE3=R&b
EXTD=
EXTT0=
EXTT1=
EXTT2=
EXTT3=
PLAYORDER=
